<?xml version="1.0" encoding="utf-8"?>
<!-- Generator: Adobe Illustrator 26.3.1, SVG Export Plug-In . SVG Version: 6.00 Build 0)  -->
<svg version="1.1" id="Layer_2_00000058589352566978268450000003563997294860023223_"
	 xmlns="http://www.w3.org/2000/svg" xmlns:xlink="http://www.w3.org/1999/xlink" x="0px" y="0px" viewBox="0 0 140.1 160.8"
	 style="enable-background:new 0 0 140.1 160.8;" xml:space="preserve">
<style type="text/css">
	.st0{fill:none;stroke:#754C24;stroke-width:1.31;stroke-miterlimit:10;}
	.st1{fill:none;stroke:#754C24;stroke-width:0.63;stroke-miterlimit:10;}
	.st2{fill:#754C24;}
	.st3{fill:#FCD40A;}
	.st4{fill:#FFE45C;}
	.st5{fill:none;stroke:#754C24;stroke-width:0.85;stroke-miterlimit:10;}
</style>
<g id="Layer_1-2">
	<g>
		<path class="st0" d="M41.2,113.5c0,0-3.3,22.5-3.3,32.1s-3.5,11.9-6.5,10.7"/>
		<path class="st0" d="M74.2,118c0,0,7.4,20.8,11.8,28.6c4.4,7.8,2.5,12.3-0.5,13.6"/>
		<g>
			<path class="st1" d="M34,60.8c0,0-12.6-8.1-27.6,22.2"/>
			<path class="st2" d="M7.7,80.8c-2.2-1.2-4.3-1.6-4.8-0.9c-0.2,0.3,0,0.8,0.4,1.3c-1.1,0.3-2.1,1-2.8,2c-1.2,2-0.6,4.4,1.4,5.4
				c0.4,0.2,0.9,0.3,1.3,0.4c-0.9,2.3-1,4.4-0.1,4.7c0.9,0.3,2.4-1.3,3.4-3.7c0.2-0.5,0.4-1,0.5-1.5C7.3,88.8,7.5,89,7.8,89
				c0.8,0.1,1.7-1.3,2-3.1c0.1-0.5,0.1-1,0-1.4c0.6,0,1-0.1,1.2-0.3C11.4,83.5,9.9,82,7.7,80.8L7.7,80.8z"/>
		</g>
		<path class="st3" d="M15,125.8c0,0-0.1-38.2,27.3-63.5C67.8,39,61.3,0,61.3,0h74c0,0,4.2,40.1-21.6,67.7
			c-29.3,31.4-22.7,58.1-22.7,58.1H15z"/>
		<g>
			<path class="st1" d="M106,71.3c0,0,12.6,8.1,27.6-22.2"/>
			<path class="st2" d="M138.1,43.4c-0.4-0.2-0.9-0.3-1.3-0.4c0.9-2.3,1-4.4,0.1-4.7c-0.9-0.3-2.4,1.3-3.4,3.7
				c-0.2,0.5-0.4,1-0.5,1.5c-0.2-0.3-0.4-0.5-0.7-0.5c-0.9-0.1-1.7,1.3-2,3.1c-0.1,0.5-0.1,1,0,1.4c-0.6,0-1,0.1-1.2,0.3
				c-0.4,0.7,1,2.2,3.2,3.4c2.2,1.2,4.3,1.6,4.8,0.9c0.2-0.3,0-0.8-0.4-1.3c1.1-0.3,2.1-1,2.8-2C140.6,46.9,140,44.4,138.1,43.4
				L138.1,43.4z"/>
		</g>
		<path class="st4" d="M6.1,125.8c0,0-0.1-38.2,25.1-63.5C54.7,39,48.7,0,48.7,0h68c0,0,3.9,40.1-19.8,67.7
			C69.9,99.1,76,125.8,76,125.8H6.1z"/>
		<g>
			<ellipse class="st2" cx="58.6" cy="45.5" rx="2" ry="2"/>
			<path class="st5" d="M63.6,40.1c-2.2-2.2-5.9-2.2-8.1,0"/>
			<path class="st5" d="M63.6,40.1"/>
			<path class="st5" d="M55.5,40.1"/>
			<ellipse class="st2" cx="74.5" cy="45.6" rx="2" ry="2"/>
			<path class="st5" d="M79.5,40.1c-2.2-2.2-5.9-2.2-8.1,0"/>
			<path class="st5" d="M79.5,40.1"/>
			<path class="st5" d="M71.4,40.1"/>
		</g>
		<path class="st2" d="M55.9,55.7c3.8,4.4,10.9,9.5,19.9,0.8c1.5-1.5,0.5-4.1-1.6-4.2l-16.3-0.6C55.7,51.7,54.5,54.1,55.9,55.7z"/>
	</g>
</g>
</svg>
