<?xml version="1.0" encoding="UTF-8"?><svg id="Layer_2" xmlns="http://www.w3.org/2000/svg" viewBox="0 0 122.96 141"><defs><style>.cls-1{stroke-width:.8px;}.cls-1,.cls-2,.cls-3,.cls-4{fill:none;stroke:#754c24;stroke-miterlimit:10;}.cls-5{fill:#ffe45c;}.cls-6{fill:#fcd40a;}.cls-7{fill:#754c24;}.cls-2{stroke-width:.71px;}.cls-4{stroke-width:1.12px;}</style></defs><g id="Layer_1-2"><g><path class="cls-5" d="M.41,21.07s.36,51.58,30.09,80.24C56.43,126.31,109.62,31.64,122.78,7.06c.68-1.28-.76-2.64-1.99-1.89-6.19,3.78-18.73,9.12-40.86,9.81C45.18,16.06,59.23,5.67,26.91,.65-5.4-4.36,.41,21.07,.41,21.07Z"/><path class="cls-3" d="M17.96,85.19s-11.52-.64-6.27,13.07c5.55,14.51,22.57,12.54,22.57,12.54"/><path class="cls-3" d="M69.9,86.27s8.6,12.54,9.31,22.21c.72,9.67,0,16.06,0,16.06"/><path class="cls-7" d="M84.81,129.72c-.34-1.86-1.12-4.06-2.41-4.93,.91-.32,1.47-.77,1.47-1.27,0-.99-2.25-1.79-5.01-1.79s-5.01,.8-5.01,1.79c0,.61,.85,1.14,2.14,1.47-.64,.51-2.79,2.74-3.44,3.7-1.34,2-.59,2.85,.2,3,1.28,.24,2.35-3.34,3.22-3.52,.03,.32-.51,2.79-.56,3.12-.67,4.59,3.62,5.59,6.31,4.96,2.7-.63,3.76-2.88,3.09-6.53Z"/><path class="cls-4" d="M56.73,97.44s-.62,22.16,.6,31.41-2.01,12.05-5.18,11.53"/><path class="cls-6" d="M122.86,6.77c.4-.72-.53-1.43-1.13-.87-3.93,3.72-11.72,9.94-26.37,17.81-10.71,5.75-17.3,8.33-21.35,9.4-3.49,.92-5.98,3.97-6.17,7.57-.34,6.65-1.81,17.42-6.9,30.9-8.74,23.16-19.92,33.88-19.92,33.88,0,0,5.39,3.15,21.87-11.89C88.17,70.5,113.93,23.02,122.86,6.77Z"/><path class="cls-7" d="M54.84,103.17c-.46-1.72-.83-2.93-6.56-1.39-2.05,.55-7.94,3.29-10.1,3.07-1.36-.14-2.33,.04-2.86-1.22,0,0-.72-2.53-.73-2.53-1.3-3.1-2.71-2.81-3.58-2.44s-.52,3.18,.78,6.28c.29,.69,.6,1.34,.93,1.92-1.06-.27-1.85-.23-2.09,.19-.45,.77,1.14,2.52,3.54,3.9,2.4,1.38,4.7,1.88,5.15,1.11,.22-.38-.06-1-.68-1.69,1.95-.17,4.31-.65,6.67-1.28,5.73-1.55,10-4.19,9.54-5.91Z"/><path class="cls-3" d="M34.12,101.72s-.62,17.75,.6,25.15c1.23,7.41-2.01,9.65-5.18,9.23"/><g><path class="cls-1" d="M30.34,66.81s.24,7.57,5.63,6.8,7.58-9.17,7.58-9.17"/><path class="cls-2" d="M17.98,52.74s.51-3.86,5.03-6.11,11.04,3.04,12.03,3.59"/><path class="cls-2" d="M38,46.85s1.67,3.32,7.1,2.64,9.63-7.42,9.78-8.3"/><circle class="cls-7" cx="27.83" cy="54.72" r="3.67"/><circle class="cls-7" cx="49.23" cy="55.23" r="3.67"/></g></g></g></svg>