<?xml version="1.0" encoding="UTF-8"?><svg id="Layer_2" xmlns="http://www.w3.org/2000/svg" viewBox="0 0 147.64 162.81"><defs><style>.cls-1{fill:#ffe45c;}.cls-2{fill:#feffe3;}.cls-3{fill:#fcd40a;}.cls-4{fill:#ccba81;}.cls-5{fill:#754c24;}.cls-6{stroke-width:1.69px;}.cls-6,.cls-7,.cls-8,.cls-9,.cls-10{fill:none;stroke-miterlimit:10;}.cls-6,.cls-9{stroke:#fcd40a;}.cls-7{stroke-width:.88px;}.cls-7,.cls-8,.cls-10{stroke:#754c24;}.cls-8{stroke-width:1.16px;}</style></defs><g id="Layer_1-2"><g><path class="cls-8" d="M45.7,118.68s-.5,22.52-1.91,32.01c-1.41,9.49,1.08,12.14,3.66,11.42"/><path class="cls-8" d="M97.38,118.68s1.44,22.48,3.25,31.91c1.81,9.42-.57,12.17-3.18,11.56"/><g><ellipse class="cls-3" cx="75.08" cy="69.97" rx="66" ry="69.97"/><ellipse class="cls-2" cx="69.72" cy="63.67" rx="59.26" ry="59.24"/></g><path class="cls-1" d="M31.85,67.92c-14.74-.92-15.8-11.92-13.31-18.95,2.49-7.03,10.84-14.09,21.13-7.87,14.22,8.6,16.99,13.28,14.5,20.31-2.49,7.03-10.79,7.23-22.33,6.51Z"/><path class="cls-1" d="M52.31,30.82c-2.76-14.54,7.59-18.47,14.98-17.91s16.26,6.8,12.81,18.42c-4.77,16.06-8.6,19.98-15.99,19.42s-9.63-8.56-11.79-19.94Z"/><path class="cls-1" d="M78.74,99.61c6.07,13.45,16.43,10.58,21.92,5.79,5.49-4.79,8.93-15.07-.37-22.51-12.85-10.27-18.09-11.22-23.58-6.43s-2.72,12.62,2.03,23.15Z"/><path class="cls-1" d="M56.02,99.61c-6.07,13.45-16.43,10.58-21.92,5.79-5.49-4.79-8.93-15.07,.37-22.51,12.85-10.27,18.09-11.22,23.58-6.43s2.72,12.62-2.03,23.15Z"/><path class="cls-5" d="M93.85,115.04c1.89-.06,4.18-.49,5.24-1.64,.18,.95,.54,1.57,1.03,1.64,.98,.15,2.11-1.95,2.53-4.69,.42-2.74-.04-5.08-1.01-5.23-.6-.09-1.26,.67-1.77,1.89-.41-.71-2.29-3.17-3.14-3.96-1.78-1.63-2.73-1.01-3-.25-.43,1.22,2.95,2.83,3,3.71-.32-.02-2.68-.92-3-1.02-4.43-1.35-6.07,2.73-5.85,5.49,.22,2.76,2.28,4.16,5.99,4.04Z"/><path class="cls-5" d="M53.88,69.67c0-7.18,6.04-4.5,13.5-4.5s13.5-2.68,13.5,4.5-6.04,13.01-13.5,13.01-13.5-5.82-13.5-13.01Z"/><path class="cls-1" d="M102.62,68.31c14.34-1.31,15.1-12.63,12.5-19.78-2.6-7.15-10.9-14.19-20.78-7.54-13.64,9.18-16.23,14.05-13.63,21.2,2.6,7.15,10.69,7.14,21.91,6.12Z"/><path class="cls-4" d="M88.19,86.62c4.2,4.01,2.31,7.43,.16,8.81-2.15,1.38-6.05,1.28-7.86-3.12-2.51-6.08-.24-9.5-.24-9.5,0,0,4.66,.67,7.94,3.81Z"/><path class="cls-4" d="M52.67,83.71c-3.3,4.78-6.97,3.45-8.67,1.55s-2.22-5.77,1.84-8.25c5.6-3.43,9.34-1.74,9.34-1.74,0,0,.07,4.7-2.51,8.44Z"/><path class="cls-4" d="M52.67,83.71c-3.3,4.78-6.97,3.45-8.67,1.55s-2.22-5.77,1.84-8.25c5.6-3.43,9.34-1.74,9.34-1.74,0,0,.07,4.7-2.51,8.44Z"/><g><path class="cls-7" d="M73.27,39.82c5.09-3.47,10.74-1.67,10.74-1.67"/><path class="cls-7" d="M73.27,56.86c5.57-2.65,10.87,0,10.87,0"/><path class="cls-7" d="M73.09,57.11c6.1-.86,10.37,3.26,10.37,3.26"/><path class="cls-7" d="M61.48,39.82c-5.09-3.47-10.74-1.67-10.74-1.67"/><path class="cls-7" d="M61.48,56.86c-5.57-2.65-10.87,0-10.87,0"/><path class="cls-7" d="M61.67,57.11c-6.1-.86-10.37,3.26-10.37,3.26"/></g><path class="cls-9" d="M28.6,82.82c-5.13,2.73-7.78-.14-8.41-2.61s.68-6.14,5.43-6.48c6.56-.47,9.1,2.75,9.1,2.75,0,0-2.1,4.21-6.11,6.34Z"/><path class="cls-6" d="M16.68,46c-9.62-1.5-10.25-8.08-8.58-12.07s7.16-7.62,13.84-3.27c9.24,6.01,9.36,12.95,9.36,12.95,0,0-7.09,3.57-14.62,2.39Z"/><path class="cls-3" d="M28.62,28.17c-3.67-3.99-1.97-7.18-.06-8.41,1.91-1.23,5.34-.99,6.9,3.28,2.16,5.89,.13,9.07,.13,9.07,0,0-4.1-.82-6.97-3.94Z"/><path class="cls-10" d="M135.1,71.77s12.04-.94,12.04,16.13-11.27,18.64-21,22.03c-9.73,3.38-28.76-.25-28.76-.25"/><path class="cls-5" d="M51.67,116.96c-1.89-.06-4.18-.49-5.24-1.64-.18,.95-.54,1.57-1.03,1.64-.98,.15-2.11-1.95-2.53-4.69-.42-2.74,.04-5.08,1.01-5.23,.6-.09,1.26,.67,1.77,1.89,.41-.71,2.29-3.17,3.14-3.96,1.78-1.63,2.73-1.01,3-.25,.43,1.22-2.95,2.83-3,3.71,.32-.02,2.68-.92,3-1.02,4.43-1.35,6.07,2.73,5.85,5.49-.22,2.76-2.28,4.16-5.99,4.04Z"/><path class="cls-10" d="M9.5,73.68s-9-.93-9,16.14,11.27,18.64,21,22.03c9.73,3.38,28.76-.25,28.76-.25"/></g></g></svg>