<?xml version="1.0" encoding="utf-8"?>
<!-- Generator: Adobe Illustrator 26.3.1, SVG Export Plug-In . SVG Version: 6.00 Build 0)  -->
<svg version="1.1" id="Layer_2_00000067208550280216362530000001042499449919479699_"
	 xmlns="http://www.w3.org/2000/svg" xmlns:xlink="http://www.w3.org/1999/xlink" x="0px" y="0px" viewBox="0 0 245.9 120.7"
	 style="enable-background:new 0 0 245.9 120.7;" xml:space="preserve">
<style type="text/css">
	.st0{fill:none;stroke:#754C24;stroke-miterlimit:10;}
	.st1{fill:#754C24;}
	.st2{fill:#FCD40A;}
	.st3{fill:#FFE45C;}
	.st4{fill:#C1272D;}
</style>
<g id="Layer_1-2">
	<g>
		<g>
			<path class="st0" d="M134.7,56.8c0,0,0.6,17.8-0.6,25.2c-1.2,7.4,2,9.7,5.2,9.2"/>
			<path class="st0" d="M107.5,58.8c0,0,0.6,17.8-0.6,25.2s2,9.7,5.2,9.2"/>
		</g>
		<g>
			<path class="st0" d="M174.4,45.2c0,0,5.7,9.5,13.1,4.1S198.6,18,198.6,18"/>
			<path class="st1" d="M204.4,16.1c0.5-3.2-1.4-6.1-4.1-6.6c-0.1,0-0.3,0-0.4,0c0.2-0.5,0.4-0.9,0.5-1.4c1-2.9,0.5-3.8-0.7-4.2
				c-1.2-0.4-2.9-0.4-3.8,2.5c-0.4,1.2-0.6,2.8-0.6,4.2c-0.3-0.2-0.6-0.3-0.9-0.2c-1.3,0.1-2.1,2.5-1.7,5.1c0.3,2,1.1,3.6,2,4.3
				c-0.6,0.2-0.9,0.6-1,1c-0.2,1.1,1.8,2.3,4.4,2.7c2.6,0.4,4.8-0.2,5-1.3c0.1-0.6-0.4-1.2-1.3-1.7C203,19.7,204.1,18.1,204.4,16.1
				L204.4,16.1z"/>
		</g>
		<g>
			<path class="st2" d="M171.5,62.7c0.4-2.8,0.7-5.6,0.7-8.4c0-30-24.3-54.2-54.2-54.2S63.7,24.3,63.7,54.2c0,2.9,0.2,5.7,0.7,8.4
				H171.5L171.5,62.7z"/>
			<path class="st3" d="M177.4,62.7c0.4-2.8,0.7-5.6,0.7-8.4c0-30-24.3-54.2-54.2-54.2S69.6,24.3,69.6,54.2c0,2.9,0.2,5.7,0.7,8.4
				H177.4L177.4,62.7z"/>
		</g>
		<g>
			<ellipse class="st1" cx="123.1" cy="31.6" rx="2.2" ry="2.5"/>
			<path class="st0" d="M125.6,26.7c-2.5-2.7-6.5-2.7-8.9,0"/>
			<path class="st0" d="M125.6,26.7"/>
			<path class="st0" d="M116.6,26.7"/>
			<ellipse class="st1" cx="136.3" cy="31.6" rx="2.2" ry="2.5"/>
			<path class="st0" d="M138.4,26.7c-2.5-2.7-6.5-2.7-8.9,0"/>
			<path class="st0" d="M138.4,26.7"/>
			<path class="st0" d="M129.5,26.7L129.5,26.7"/>
		</g>
		<g>
			<path class="st0" d="M55.3,37.3c0,0-19,10.2-11.7,14.8s23.9-2.3,23.9-2.3"/>
			<path class="st1" d="M65.3,31.2c-1.5-2.3-5.2-2.6-8.4-0.6c-0.2,0.1-0.4,0.3-0.6,0.4c-0.1-0.3-0.3-0.5-0.5-0.6
				C55,30,53.8,31.2,53,33c-0.1,0.3-0.2,0.7-0.3,1c-0.6-0.5-1.2-0.6-1.5-0.4c-0.8,0.5-0.1,2.8,1.4,5.1c1.5,2.3,3.3,3.9,4.1,3.4
				c0.4-0.2,0.4-1,0.1-2c1.7,0.3,3.7,0,5.5-1.2C65.5,37,66.8,33.5,65.3,31.2L65.3,31.2z"/>
		</g>
		<line class="st0" x1="51.3" y1="23.2" x2="83.3" y2="65.5"/>
		<path class="st4" d="M44.7,10.8c0,0-1,11-7,15s-9,12-9,12s6-5,12-5s13.5-8.5,13.5-8.5L44.7,10.8z"/>
		<path class="st1" d="M120.9,39.2c0-2.3,3.6-1.2,8-1.2s8-1.1,8,1.2s-3.6,4.2-8,4.2S120.9,41.5,120.9,39.2z"/>
	</g>
</g>
</svg>
