<?xml version="1.0" encoding="utf-8"?>
<!-- Generator: Adobe Illustrator 26.3.1, SVG Export Plug-In . SVG Version: 6.00 Build 0)  -->
<svg version="1.1" id="Layer_2_00000044141130501027963970000001871900507293441415_"
	 xmlns="http://www.w3.org/2000/svg" xmlns:xlink="http://www.w3.org/1999/xlink" x="0px" y="0px" viewBox="0 0 124.5 116.6"
	 style="enable-background:new 0 0 124.5 116.6;" xml:space="preserve">
<style type="text/css">
	.st0{fill:none;stroke:#754C24;stroke-width:0.51;stroke-miterlimit:10;}
	.st1{fill:none;stroke:#754C24;stroke-width:1.15;stroke-miterlimit:10;}
	.st2{fill:#FCD40A;}
	.st3{fill:#FFE45C;}
	.st4{fill:#754C24;}
	.st5{fill:none;stroke:#754C24;stroke-miterlimit:10;}
	.st6{fill:none;stroke:#754C24;stroke-width:0.63;stroke-miterlimit:10;}
</style>
<g>
	<path class="st0" d="M25.5,44.5c0,0-8.5,8.1-18.5-22.2"/>
	<path class="st1" d="M41.2,80.3c0,0-0.6,17.8,0.6,25.2c1.2,7.4-2,9.7-5.2,9.2"/>
	<path class="st1" d="M68.4,82.3c0,0-0.6,17.8,0.6,25.2s-2,9.7-5.2,9.2"/>
	<polygon class="st2" points="90.6,0.7 90.5,0.9 90.5,0.7 88.9,0.7 71.9,0.7 69.1,0.7 54.9,0.7 52.2,0.7 35.1,0.7 33.6,0.7 
		33.6,1.3 33.5,0.7 16.4,82.5 33.6,82.5 50.5,82.5 71.9,82.5 71.9,82.5 71.9,82.5 71.9,82.5 71.9,82.5 73.6,82.5 90.5,82.5 
		107.6,82.5 	"/>
	<polygon class="st3" points="88.7,0.9 71.7,0.9 54.7,0.9 33.4,0.9 33.4,1.6 33.2,0.9 16.2,82.3 33.4,82.3 50.3,82.3 71.7,82.3 
		71.7,82.1 71.7,82.3 	"/>
	<g>
		<ellipse class="st4" cx="43.7" cy="31.3" rx="2.2" ry="2.5"/>
		<path class="st5" d="M39.7,27.1"/>
		<path class="st5" d="M39.5,27.1"/>
		<path class="st5" d="M48.4,27.1c-2.5-2.7-6.5-2.7-8.9,0"/>
		<path class="st5" d="M48.4,27.1"/>
		<path class="st5" d="M48,27.1"/>
		<ellipse class="st4" cx="57.6" cy="31.3" rx="2.2" ry="2.5"/>
		<path class="st5" d="M62.2,26.9c-2.4-2.7-6.4-2.7-8.9,0"/>
		<path class="st5" d="M62.2,27.6"/>
		<path class="st5" d="M53.3,27.6"/>
	</g>
	<path class="st6" d="M45.9,36.3c1.4,4.5,7.4,4.6,9.5,0.4"/>
	<path class="st6" d="M90.7,48.5c0,0,12.6,8.1,27.6-22.2"/>
	<path class="st4" d="M122.7,20.6c-0.4-0.2-0.8-0.3-1.3-0.4c0.9-2.3,1-4.4,0.1-4.7s-2.4,1.3-3.4,3.7c-0.2,0.5-0.4,1-0.5,1.5
		c-0.2-0.3-0.4-0.5-0.7-0.5c-0.8-0.1-1.7,1.3-2,3.1c-0.1,0.5-0.1,1,0,1.4c-0.6,0-1,0.1-1.2,0.3c-0.4,0.7,1,2.2,3.2,3.4
		s4.3,1.6,4.8,0.9c0.2-0.3,0-0.8-0.4-1.3c1.1-0.3,2.1-1,2.8-2C125.3,24.1,124.6,21.6,122.7,20.6L122.7,20.6z"/>
	<path class="st4" d="M11.1,23.4c-0.2-0.3-0.6-0.4-1.2-0.3c0-0.4,0-0.9,0-1.4c-0.2-1.8-1.1-3.2-2-3.1c-0.3,0-0.5,0.2-0.7,0.5
		c-0.1-0.5-0.3-1-0.5-1.5c-1-2.4-2.5-4-3.4-3.7s-0.8,2.4,0.1,4.7c-0.5,0.1-0.9,0.2-1.3,0.4c-1.9,1-2.5,3.5-1.4,5.4
		c0.6,1.1,1.6,1.8,2.8,2c-0.4,0.5-0.6,1-0.4,1.3c0.4,0.7,2.5,0.3,4.8-0.9C10.1,25.6,11.5,24.1,11.1,23.4L11.1,23.4z"/>
</g>
</svg>
