<?xml version="1.0" encoding="UTF-8"?><svg xmlns="http://www.w3.org/2000/svg" xmlns:xlink="http://www.w3.org/1999/xlink" viewBox="0 0 91.92 180.68"><defs><style>.cls-1,.cls-2,.cls-3,.cls-4,.cls-5,.cls-6{fill:none;}.cls-7{clip-path:url(#clippath);}.cls-8{fill:#ffe45c;}.cls-9{fill:#fcd40a;}.cls-10{fill:#c2e0ff;}.cls-11{fill:#badaff;}.cls-12{fill:#a64987;}.cls-13{fill:#cff5ff;}.cls-14{fill:#c7f4ff;}.cls-15{fill:#0ae8fc;}.cls-16,.cls-17{fill:#754c24;}.cls-2{stroke-width:.88px;}.cls-2,.cls-3,.cls-4,.cls-5,.cls-6{stroke:#754c24;stroke-miterlimit:10;}.cls-3{stroke-width:1.28px;}.cls-17{mix-blend-mode:overlay;}.cls-4{stroke-width:1.16px;}.cls-18,.cls-19{opacity:.6;}.cls-6{stroke-width:1.24px;}.cls-20{isolation:isolate;}.cls-19{fill:#800055;}</style><clipPath id="clippath"><ellipse class="cls-1" cx="46.5" cy="66.27" rx="11.9" ry="4.38"/></clipPath></defs><g class="cls-20"><g id="Layer_2"><g id="Layer_1-2"><g><path class="cls-4" d="M34.98,133.8s-4.43,22.09-5.12,31.66c-.7,9.57-3.7,11.61-6.07,10.34"/><path class="cls-6" d="M52.11,134.96s7.82,23.64,9.99,34.09c2.17,10.45,5.49,12.2,7.65,10.4"/><path class="cls-5" d="M80.99,69.65s11.1-.26,10.4,8.91c-.7,9.17-20.57,26.13-20.57,26.13"/><g><path class="cls-8" d="M81.06,12.22h-.3C80.77,5.47,65.55,0,46.77,0S12.78,5.47,12.78,12.22h-.3v127.39h.3c.15,6.7,15.31,12.11,33.99,12.11s33.84-5.41,33.99-12.11h.3V12.22Z"/><ellipse class="cls-9" cx="46.77" cy="12.2" rx="34" ry="12.2"/></g><g><ellipse class="cls-11" cx="47.09" cy="94.74" rx="10.5" ry="2.56"/><ellipse class="cls-14" cx="46.21" cy="94.74" rx="10.5" ry="2.56"/><ellipse class="cls-14" cx="46.21" cy="94.74" rx="10.5" ry="2.56"/><rect class="cls-10" x="46.15" y="79.4" width="1.75" height="14.69" rx=".87" ry=".87"/><rect class="cls-14" x="45.67" y="79.4" width="1.75" height="14.69" rx=".87" ry=".87"/><ellipse class="cls-11" cx="47.09" cy="94.74" rx="10.5" ry="2.56"/><ellipse class="cls-14" cx="46.21" cy="94.74" rx="10.5" ry="2.56"/><ellipse class="cls-14" cx="46.21" cy="94.74" rx="10.5" ry="2.56"/><rect class="cls-10" x="46.15" y="79.4" width="1.75" height="14.69" rx=".87" ry=".87"/><rect class="cls-14" x="45.67" y="79.4" width="1.75" height="14.69" rx=".87" ry=".87"/><path class="cls-13" d="M60.43,65.1c-1.39-3.01-6.97-4.81-13.66-4.81s-12.27,1.8-13.66,4.81h-.34v8.47c0,3.9,6.27,7.06,14,7.06s14-3.16,14-7.06v-8.47h-.34Z"/><g class="cls-18"><g><path class="cls-12" d="M35.71,64.87v.41c0-.14,.02-.28,.06-.41h-.06Z"/><path class="cls-12" d="M46.41,69.19c-5.91,0-10.7-1.75-10.7-3.91v6.94c0,3.38,4.79,6.13,10.7,6.13s10.7-2.74,10.7-6.13v-6.94c0,2.16-4.79,3.91-10.7,3.91Z"/><path class="cls-12" d="M57.05,64.87c.04,.14,.06,.27,.06,.41v-.41h-.06Z"/></g></g><g class="cls-7"><ellipse class="cls-15" cx="46.5" cy="66.27" rx="11.9" ry="4.38"/><ellipse class="cls-19" cx="46.5" cy="68.01" rx="11.9" ry="4.38"/></g></g><g><path class="cls-3" d="M12.48,60.29s-18.12-.66-9.52,13.06c9.09,14.51,36.96,12.54,36.96,12.54"/><path class="cls-16" d="M57.43,80.09c-.47-1.72-.83-2.93-6.59-1.39-2.06,.55-7.98,3.29-10.16,3.07-1.37-.14-2.35,.04-2.88-1.22,0,0-.73-2.53-.73-2.53-1.31-3.1-2.72-2.81-3.6-2.44s-.52,3.18,.79,6.28c.29,.69,.61,1.34,.93,1.92-1.06-.27-1.86-.23-2.1,.19-.45,.77,1.14,2.52,3.56,3.9,2.41,1.38,4.73,1.88,5.18,1.11,.22-.38-.06-1-.68-1.69,1.96-.17,4.33-.65,6.7-1.28,5.76-1.55,10.05-4.19,9.59-5.91Z"/></g><g><ellipse class="cls-16" cx="40.26" cy="54.26" rx="1.99" ry="2.09"/><ellipse class="cls-16" cx="52.1" cy="54.26" rx="1.99" ry="2.09"/><path class="cls-2" d="M49.09,49.82c5.57-2.65,10.87,0,10.87,0"/><path class="cls-2" d="M32.69,49.69c5.57-2.65,10.87,0,10.87,0"/></g><path class="cls-17" d="M40.77,70.26c0-2.66,2.69,.59,6,.59s6-3.25,6-.59-2.69,4.81-6,4.81-6-2.16-6-4.81Z"/></g></g></g></g></svg>