<?xml version="1.0" encoding="UTF-8"?><svg id="Layer_2" xmlns="http://www.w3.org/2000/svg" viewBox="0 0 138.63 177.84"><defs><style>.cls-1{stroke-width:.76px;}.cls-1,.cls-2,.cls-3,.cls-4,.cls-5{fill:none;stroke-miterlimit:10;}.cls-1,.cls-2,.cls-4,.cls-5{stroke:#754c24;}.cls-6{fill:#ededed;}.cls-7{fill:#ffe45c;}.cls-8{fill:#feffe3;}.cls-9{fill:#fcd40a;}.cls-10{fill:#9e2024;}.cls-11{fill:#c1272d;}.cls-12{fill:#754c24;}.cls-2{stroke-width:1.28px;}.cls-3{stroke:#825b0e;stroke-width:.75px;}.cls-4{stroke-width:.81px;}.cls-5{stroke-width:1.36px;}</style></defs><g id="Layer_1-2"><g><path class="cls-2" d="M44.24,132.91s-5.56,21.12-6.43,30.28c-.87,9.15-4.65,11.1-7.62,9.89"/><path class="cls-5" d="M65.75,134.02s9.82,22.61,12.54,32.6c2.72,9.99,6.89,11.66,9.61,9.94"/><g><path class="cls-9" d="M92.67,60.82c0-.76,.04-1.5,.11-2.24-7.17-2.22-12.82-7.78-15.03-14.82-2.32,.77-4.8,1.19-7.38,1.19-8.26,0-15.51-4.27-19.56-10.67C25.13,38.99,5.63,61.79,5.63,89.23c0,30.84,24.63,55.84,55.01,55.84s55.01-25,55.01-55.84c0-2-.11-3.98-.31-5.93-12.55-.16-22.67-10.16-22.67-22.47Z"/><path class="cls-7" d="M85.83,63.19c0-.73,.04-1.46,.11-2.17-7.07-2.15-12.64-7.56-14.82-14.39-2.29,.75-4.73,1.16-7.28,1.16-8.15,0-15.29-4.15-19.29-10.37C19.22,41.99,0,64.14,0,90.79,0,120.75,24.29,145.04,54.25,145.04s54.25-24.29,54.25-54.25c0-1.95-.11-3.87-.31-5.76-12.38-.16-22.36-9.87-22.36-21.83Z"/></g><path class="cls-1" d="M6.84,118.61s-7.16,9.39-4.45,15.41c4.05,9.01,23.03,9.22,26,4.36"/><g><path class="cls-12" d="M64.06,81.25l-19.43,5.7c-1.45,.42-2.11,2.1-1.34,3.4l5.11,8.62c.77,1.3,2.55,1.52,3.62,.45l14.32-14.32c1.69-1.69,.01-4.52-2.28-3.85Z"/><path class="cls-12" d="M26.9,83.5l15.71,3.4c1.55,.34,2.31,2.1,1.49,3.46l-5.13,8.46c-.8,1.33-2.67,1.5-3.7,.34l-10.58-11.86c-1.49-1.67,.03-4.27,2.21-3.8Z"/></g><path class="cls-3" d="M37.92,104.54s1.4,6.02,6.09,5.37c5.69-.79,8.93-6.39,9.2-7.92"/><path class="cls-10" d="M59.69,127.6c-.37-1.77-1.73-2.46-2.75-2.46l-16.44,.49-10.63-8.44c-1.33-.94-3.61,.35-3.36,1.94l1.34,8.59s-.07,.06-.1,.1l-4.34,5.44c-1.61,2.01-.17,4.99,2.4,4.99h8.67c.92,0,1.69-.38,2.23-.96l6.52,7.96c.72,.88,2.59,1.76,3.82,.25l11.65-14.29c.83-1.01,1.25-2.34,.98-3.63Z"/><g><path class="cls-10" d="M33.87,126.64l-17.4-6.37c-.18-.84-.76-1.58-1.64-1.95l-5.62-2.33c-1.42-.59-3.07,.05-3.68,1.43l-.21,.48c-.61,1.38,.05,2.97,1.47,3.56l5.62,2.33c.87,.36,1.81,.26,2.56-.18l17.13,7.54,1.76-4.51Z"/><path class="cls-11" d="M34.48,126.14l-17.4-6.37c-.18-.84-.76-1.58-1.64-1.95l-5.62-2.33c-1.42-.59-3.07,.05-3.68,1.43l-.21,.48c-.61,1.38,.05,2.97,1.47,3.56l5.62,2.33c.87,.36,1.81,.26,2.56-.18l17.13,7.54,1.76-4.51Z"/></g><path class="cls-11" d="M56.46,125.11h-15.1l-10.98-7.92c-1.3-.88-3.07,.15-2.83,1.65l1.31,8.1s-.09,.08-.13,.13l-3.92,4.75c-1.65,2.01-.23,5.03,2.37,5.03h7.84c1.34,0,2.36-.8,2.82-1.85l6.09,7.19c1.23,1.45,3.46,1.45,4.69,0l10.19-12.02c1.69-2,.27-5.06-2.35-5.06Z"/><g><path class="cls-6" d="M47.82,126.6l-7.29-.09-6.61-4.66c-.84-.52-2.02-.14-2.45,1.03l-.85,6.48c.02,.15,.24,.07,.54-.09,.09,1.41,1.11,2.74,2.79,2.89l3.07,.28,3.25,3.42c.59,.63,1.62,.72,2.34,.21l4.96-5.67c.91-.82,1.8-3.67,.25-3.81Z"/><path class="cls-8" d="M48.23,126.36l-7.29-.07-6.6-4.45c-.83-.5-2.02-.13-2.45,.99l-.85,6.2c.02,.19,.39,0,.84-.25,.06,1.43,1.09,2.81,2.81,2.96l2.74,.23,3.24,3.27c.59,.6,1.62,.69,2.34,.2l4.97-5.44c.91-.78,1.81-3.52,.26-3.65Z"/></g><g><path class="cls-12" d="M128.89,64.2c-.95-.29-2.23,.99-3.03,2.94-.82-.44-1.77-.69-2.78-.66-.38,.01-.75,.06-1.1,.15,.23-2.09-.29-3.8-1.27-3.98-1.11-.21-2.38,1.61-2.86,4.05-.29,1.5-.21,2.89,.16,3.78-.02,.06-.03,.12-.04,.18-1.14-1.43-2.42-2.2-3.18-1.79-.98,.53-.74,2.82,.55,5.11,.41,.72,.87,1.34,1.34,1.85-.42,.27-.67,.58-.67,.91,0,1.11,2.7,2,6.04,2s6.04-.9,6.04-2c0-.45-.46-.87-1.23-1.21,1.14-.99,1.84-2.44,1.78-4.04,0-.02,0-.04,0-.06,.26-.57,.54-1.32,.83-2.35,.68-2.39,.5-4.56-.57-4.89Z"/><path class="cls-4" d="M109.94,107.04s5.48,2.95,9.32-9.72c4.72-15.6,2.02-26.63,2.02-26.63"/></g><path class="cls-12" d="M40.48,130.92c-.48-1.07-3.23-1.07-6.14,0-.83,.31-1.58,.67-2.22,1.05,.73-1.52,.83-2.82,.12-3.29-1.04-.68-3.37,.64-5.21,2.95-1,1.26-1.64,2.53-1.85,3.56-.65-.33-1.24-.42-1.67-.2-1.1,.59-.7,3.05,.9,5.51,1.6,2.45,3.79,3.96,4.89,3.37,.53-.29,.71-1.02,.57-1.97,1,.22,2.11,.21,3.21-.09,3.01-.81,4.81-3.42,4.02-5.83-.16-.48-.43-.9-.75-1.29,2.77-1.08,4.6-2.75,4.14-3.79Z"/></g></g></svg>