<?xml version="1.0" encoding="UTF-8"?><svg id="Layer_2" xmlns="http://www.w3.org/2000/svg" viewBox="0 0 57.79 181.13"><defs><style>.cls-1{fill:#ffe45c;}.cls-2{fill:#feffe3;}.cls-3{fill:#fcd40a;}.cls-4{fill:#c1272d;}.cls-5{fill:#754c24;}.cls-6{stroke-width:.88px;}.cls-6,.cls-7,.cls-8,.cls-9{fill:none;stroke:#754c24;stroke-miterlimit:10;}.cls-7{stroke-width:1.16px;}.cls-9{stroke-linecap:round;stroke-width:.26px;}</style></defs><g id="Layer_1-2"><g><path class="cls-8" d="M42.71,84.69s12.33,9.85,13.04,19.52c.72,9.67-2.29,16.75-2.29,16.75"/><path class="cls-8" d="M16.4,84.51s-7.09,12.61-9.31,22.21c-2.19,9.45,0,16.06,0,16.06"/><path class="cls-7" d="M18.69,136.82s-.97,22.51-.18,32.07c.79,9.56-1.87,12.04-4.4,11.15"/><path class="cls-7" d="M40.2,137.16s-.97,22.51-.18,32.07c.79,9.56-1.87,12.04-4.4,11.15"/><path class="cls-3" d="M44.87,13.82h.01c.94,0,1.39-1.14,.71-1.79L35.38,2.33c-3.26-3.1-8.38-3.1-11.65,0L13.52,12.03c-.68,.65-.22,1.79,.71,1.79h0c-1,0-1.42,1.28-.61,1.88l15.31,11.14c.36,.26,.86,.26,1.22,0l15.31-11.14c.81-.59,.39-1.88-.61-1.88Z"/><rect class="cls-1" x="11.07" y="12.2" width="37" height="147.54" rx="3.89" ry="3.89"/><g><ellipse class="cls-5" cx="24.7" cy="72.8" rx="1.99" ry="2.09"/><ellipse class="cls-5" cx="33.82" cy="72.8" rx="1.99" ry="2.09"/><path class="cls-6" d="M31.83,63.67c6.01-1.36,10.6,2.38,10.6,2.38"/><path class="cls-6" d="M27.03,63.75c-6.11-.77-10.32,3.4-10.32,3.4"/></g><path class="cls-5" d="M26.07,77.67c0-1.27,1.57-.8,3.5-.8s3.5-.47,3.5,.8-1.57,2.3-3.5,2.3-3.5-1.03-3.5-2.3Z"/><path class="cls-5" d="M.19,124.64c.34-1.86,1.12-4.06,2.41-4.93-.91-.32-1.47-.77-1.47-1.27,0-.99,2.25-1.79,5.01-1.79s5.01,.8,5.01,1.79c0,.61-.85,1.14-2.14,1.47,.64,.51,2.79,2.74,3.44,3.7,1.34,2,.59,2.85-.2,3-1.28,.24-2.35-3.34-3.22-3.52-.03,.32,.51,2.79,.56,3.12,.67,4.59-3.62,5.59-6.31,4.96-2.7-.63-3.76-2.88-3.09-6.53Z"/><g><g><path class="cls-4" d="M27.89,124.28l3.2-8.89c.79-2.2,3.22-3.35,5.41-2.57l10.29,3.67c2.2,.78,3.34,3.2,2.55,5.4l-3.2,8.89c-.79,2.2-3.22,3.35-5.41,2.57l-10.29-3.67c-2.2-.78-3.34-3.2-2.55-5.4Z"/><path class="cls-2" d="M28.85,125.38l3-8.34c.72-1.99,2.91-3.03,4.9-2.32l11.05,3.94c1.99,.71,3.02,2.9,2.31,4.89l-3,8.34c-.72,1.99-2.91,3.03-4.9,2.32l-11.05-3.94c-1.99-.71-3.02-2.9-2.31-4.89Z"/><path class="cls-4" d="M30.48,127.61l4.73-13.16c.37-1.02,1.5-1.56,2.52-1.19l14.55,5.19c1.02,.36,1.55,1.49,1.19,2.51l-4.73,13.16c-.37,1.02-1.5,1.56-2.52,1.19l-14.55-5.19c-1.02-.36-1.55-1.49-1.19-2.51Z"/><g><line class="cls-9" x1="32.11" y1="118.11" x2="30.3" y2="123.23"/><line class="cls-9" x1="32.29" y1="119.19" x2="30.48" y2="124.31"/><line class="cls-9" x1="33.52" y1="117.37" x2="31.71" y2="122.49"/></g></g><ellipse class="cls-5" cx="50.32" cy="117.52" rx="3.37" ry="2" transform="translate(-8.34 3.93) rotate(-4.13)"/><path class="cls-5" d="M56.36,117.73c-1.35-2.35-3.07-3.96-3.84-3.59-.24,.11-.36,.4-.37,.81-.02,.61,.61,1.68,.36,1.84,.22,.7-.38,.57-2.27,.9h0c-.17,.11-1.51,.38-2.36,.55-.31,.08-.61,.16-.9,.23-3.59,1.24-2.31,5.13-.54,7.14,1.81,2.06,4.08,2.12,6.6,.19,.93-.72,1.89-1.7,2.37-2.73,.23-.5,.82-.63,1.39-.42,.24,.09,.45,.1,.61,.02,.77-.37,.3-2.58-1.05-4.93Z"/></g></g></g></svg>