<?xml version="1.0" encoding="UTF-8"?><svg id="Layer_2" xmlns="http://www.w3.org/2000/svg" xmlns:xlink="http://www.w3.org/1999/xlink" viewBox="0 0 156.86 152.84"><defs><style>.cls-1{fill:url(#linear-gradient);}.cls-2{fill:#ffe45c;}.cls-3{fill:#f2ca00;}.cls-4{fill:#fcd40a;}.cls-5{fill:#754c24;}.cls-6{stroke:#9e7c5a;stroke-dasharray:0 0 0 0 0 0 1 2 1 2 1 2;stroke-linecap:round;}.cls-6,.cls-7,.cls-8,.cls-9,.cls-10,.cls-11,.cls-12{stroke-miterlimit:10;}.cls-6,.cls-8,.cls-9,.cls-10,.cls-11,.cls-12{fill:none;}.cls-13{fill:url(#radial-gradient-2);}.cls-13,.cls-14,.cls-15{opacity:.2;}.cls-14{fill:url(#radial-gradient-3);}.cls-15{fill:url(#radial-gradient-4);}.cls-7{fill:url(#linear-gradient-3);}.cls-7,.cls-8,.cls-9,.cls-10,.cls-11,.cls-12{stroke:#754c24;}.cls-16{fill:url(#radial-gradient-5);}.cls-8{stroke-width:1.04px;}.cls-17{fill:url(#linear-gradient-2);}.cls-9{stroke-width:1.16px;}.cls-11{stroke-width:1.2px;}.cls-18{opacity:.8;}.cls-12{stroke-width:1.24px;}.cls-19{fill:url(#radial-gradient);opacity:.25;}.cls-20{fill:#abdbff;opacity:.75;}</style><linearGradient id="linear-gradient" x1="55.73" y1="112.13" x2="65.11" y2="129.3" gradientTransform="matrix(1, 0, 0, 1, 0, 0)" gradientUnits="userSpaceOnUse"><stop offset="0" stop-color="#c22777"/><stop offset="1" stop-color="#fff"/></linearGradient><radialGradient id="radial-gradient" cx="104.08" cy="34.49" fx="104.08" fy="34.49" r="10.66" gradientTransform="translate(-14.24 93.85) scale(.7)" gradientUnits="userSpaceOnUse"><stop offset="0" stop-color="#c22777"/><stop offset=".59" stop-color="#ff7abd"/><stop offset="1" stop-color="#61133b"/></radialGradient><radialGradient id="radial-gradient-2" cx="104.08" cy="34.49" fx="104.08" fy="34.49" r="3.55" gradientTransform="translate(-14.24 93.85) scale(.7)" gradientUnits="userSpaceOnUse"><stop offset="0" stop-color="#fff" stop-opacity=".01"/><stop offset="1" stop-color="#fff"/></radialGradient><radialGradient id="radial-gradient-3" cx="102.11" cy="32.52" fx="102.11" fy="32.52" r="1.58" xlink:href="#radial-gradient-2"/><radialGradient id="radial-gradient-4" cx="101.32" cy="38.83" fx="101.32" fy="38.83" r=".79" xlink:href="#radial-gradient-2"/><radialGradient id="radial-gradient-5" cx="104.54" cy="-35.2" fx="104.54" fy="-35.2" r="9" gradientTransform="translate(-5.28 104.72) scale(.5)" gradientUnits="userSpaceOnUse"><stop offset="0" stop-color="#abc7ff" stop-opacity="0"/><stop offset=".37" stop-color="#abc7ff" stop-opacity="0"/><stop offset=".51" stop-color="#adc8ff" stop-opacity=".03"/><stop offset=".6" stop-color="#b1cbff" stop-opacity=".08"/><stop offset=".68" stop-color="#b7cfff" stop-opacity=".15"/><stop offset=".75" stop-color="#bed4ff" stop-opacity=".23"/><stop offset=".8" stop-color="#c7daff" stop-opacity=".34"/><stop offset=".86" stop-color="#d2e1ff" stop-opacity=".47"/><stop offset=".91" stop-color="#dee9ff" stop-opacity=".61"/><stop offset=".95" stop-color="#ecf2ff" stop-opacity=".78"/><stop offset=".99" stop-color="#fbfcff" stop-opacity=".96"/><stop offset="1" stop-color="#fff"/></radialGradient><linearGradient id="linear-gradient-2" x1="-96.68" y1="121.49" x2="-92.93" y2="120.79" gradientTransform="translate(185.35 149.94) rotate(77)" gradientUnits="userSpaceOnUse"><stop offset="0" stop-color="#fff"/><stop offset="1" stop-color="#fff" stop-opacity="0"/></linearGradient><linearGradient id="linear-gradient-3" x1="-96.68" y1="121.49" x2="-92.93" y2="120.79" xlink:href="#linear-gradient-2"/></defs><g id="Layer_1-2"><g><path class="cls-9" d="M47.19,107.12s-4.43,22.09-5.12,31.66c-.7,9.57-3.7,11.61-6.07,10.34"/><path class="cls-12" d="M90,107.12s7.82,23.64,9.99,34.09c2.17,10.45,5.49,12.2,7.65,10.4"/><path class="cls-3" d="M34.4,53.7c-.91,3.58-1.4,7.31-1.4,11.15,0,26.37,3.55,55.09,50.64,55.09,85.49,.68,54.73-38.88,50.7-66.24H34.4Z"/><path class="cls-8" d="M89.89,98.12s-1.2,13.34-4.78,20.98c-7.25,15.51-22.11,8.23-22.11,8.23"/><path class="cls-4" d="M67.5,45.59c-10.83,0-21.68,.77-31.43,1.82-5.36,7.65-10.02,16.16-13.57,24.13-24.37,54.57,8.25,55.59,52.5,55.59s40.35-36.41,52.5-51.88c7.87-10.02,9.21-17.92,5.55-24.51-17.44-2.18-44.91-5.13-65.55-5.13Z"/><path class="cls-2" d="M72,44.12c-13.69,0-28.18,1.5-40.55,3.27-4.68,6.96-8.76,14.49-11.95,21.59-24.37,54.14,8.25,55.15,52.5,55.15s40.35-36.12,52.5-51.47c7.02-8.87,8.84-16.06,6.55-22.15-14.28-2.66-38.04-6.38-59.05-6.38Z"/><g><circle class="cls-1" cx="59" cy="118.12" r="7.5"/><circle class="cls-19" cx="59" cy="118.12" r="7.5"/><circle class="cls-13" cx="59" cy="118.12" r="2.5"/><circle class="cls-14" cx="57.61" cy="116.73" r="1.11"/><circle class="cls-15" cx="57.06" cy="121.17" r=".56"/></g><path class="cls-5" d="M45.03,120.85c.47-1.72,.83-2.93,6.59-1.39,2.06,.55,7.98,3.29,10.16,3.07,1.37-.14,2.35,.04,2.88-1.22,0,0,.73-2.53,.73-2.53,1.31-3.1,2.72-2.81,3.6-2.44s.52,3.18-.79,6.28c-.29,.69-.61,1.34-.93,1.92,1.06-.27,1.86-.23,2.1,.19,.45,.77-1.14,2.52-3.56,3.9-2.41,1.38-4.73,1.88-5.18,1.11-.22-.38,.06-1,.68-1.69-1.96-.17-4.33-.65-6.7-1.28-5.76-1.55-10.05-4.19-9.59-5.91Z"/><path class="cls-11" d="M12.23,89.12s-2.47,3.56-3.23,9c-1.79,12.74,27,0,27,0"/><g><ellipse class="cls-5" cx="46.92" cy="82.68" rx="2.16" ry="2.5"/><ellipse class="cls-5" cx="65.7" cy="82.76" rx="2.16" ry="2.5"/><path class="cls-10" d="M63,77.88c2.47-2.72,4.43-3.71,7.67-2"/><path class="cls-10" d="M50.59,77.79c-2.47-2.72-4.43-3.71-7.67-2"/></g><path class="cls-6" d="M42.08,85.13s-15.37,2.45-21.48-3.67c-8.63-8.63-2.6-10.34-2.6-10.34"/><path class="cls-10" d="M48.81,89.12s10.96,2.78,12.38,5.16"/><g class="cls-18"><circle class="cls-16" cx="47" cy="87.12" r="4.5"/><circle class="cls-20" cx="47" cy="87.12" r="4.5"/><circle class="cls-17" cx="47" cy="87.12" r="4.5"/><circle class="cls-17" cx="47" cy="87.12" r="4.5"/><circle class="cls-7" cx="47" cy="87.12" r="4.5"/></g><path class="cls-5" d="M50.76,90.78c-.48-1.07-3.23-1.07-6.14,0-.83,.31-1.58,.67-2.22,1.05,.73-1.52,.83-2.82,.12-3.29-1.04-.68-3.37,.64-5.21,2.95-1,1.26-1.64,2.53-1.85,3.56-.65-.33-1.24-.42-1.67-.2-1.1,.59-.7,3.05,.9,5.51,1.6,2.45,3.79,3.96,4.89,3.37,.53-.29,.71-1.02,.57-1.97,1,.22,2.11,.21,3.21-.09,3.01-.81,4.81-3.42,4.02-5.83-.16-.48-.43-.9-.75-1.29,2.77-1.08,4.6-2.75,4.14-3.79Z"/></g></g></svg>