<?xml version="1.0" encoding="utf-8"?>
<!-- Generator: Adobe Illustrator 26.3.1, SVG Export Plug-In . SVG Version: 6.00 Build 0)  -->
<svg version="1.1" id="Layer_2_00000140703489394099339230000015702268112586341565_"
	 xmlns="http://www.w3.org/2000/svg" xmlns:xlink="http://www.w3.org/1999/xlink" x="0px" y="0px" viewBox="0 0 157.8 161.5"
	 style="enable-background:new 0 0 157.8 161.5;" xml:space="preserve">
<style type="text/css">
	.st0{fill:none;stroke:#754C24;stroke-width:1.22;stroke-miterlimit:10;}
	.st1{fill:none;stroke:#754C24;stroke-miterlimit:10;}
	.st2{fill:#754C24;}
	.st3{fill:#FCD40A;}
	.st4{fill:#FFE45C;}
</style>
<g id="Layer_1-2">
	<g>
		<path class="st0" d="M102.3,119.5c0,0,10,15.6,16.2,18.2c14.1,6,16.1-3.7,18.4-6.9c4.6-6.5,6.9,2.6,6.9,2.6"/>
		<path class="st0" d="M84.7,109.9c0,0-14,17.9-14.6,25.8c-1.1,15.2,9.4,16.4,12.9,17.8c6.6,2.7,0.6,7.6,0.6,7.6"/>
		<g>
			<path class="st1" d="M46.2,71.1c0,0,1.8,11-7.4,11.5S10.1,65.8,10.1,65.8"/>
			<path class="st2" d="M15.9,64.8c-0.3-0.3-0.8-0.3-1.4-0.1c0.3-1.1-0.1-2.9-1.2-4.5c-1.4-2.3-3.5-3.6-4.6-2.9
				c-0.3,0.2-0.4,0.4-0.5,0.8c-0.9-1.1-2.1-2.1-3.2-2.8c-2.6-1.6-3.8-0.6-4.6,0.5c-0.7,1.1-0.4,2.1,2.2,3.7c0.4,0.2,0.8,0.5,1.3,0.7
				c-0.1,0.1-0.2,0.2-0.3,0.3c-1.8,2.1-1.4,5.5,1,7.7c1.5,1.3,3.3,1.8,5,1.6c-0.4,1-0.4,1.8,0.1,2.2c0.8,0.8,2.9-0.2,4.7-2.2
				S16.7,65.5,15.9,64.8L15.9,64.8z"/>
		</g>
		<path class="st3" d="M127.9,0.3V0H75v0.1C74.3,0.1,73.5,0,72.7,0C51.9,0,35.1,27.2,35.1,60.9s16.8,60.9,37.6,60.9
			c0.8,0,1.6-0.1,2.4-0.1v0.1h52.8v-0.3c16.8-3,29.9-29,29.9-60.6S144.6,3.3,127.9,0.3z"/>
		<ellipse class="st4" cx="73" cy="61" rx="38.2" ry="60.9"/>
		<path class="st1" d="M133.9,64.2c0,0,11.1-0.3,10.4,8.9c-0.7,9.2-20.6,26.1-20.6,26.1"/>
		<ellipse transform="matrix(0.7606 -0.6492 0.6492 0.7606 -32.7049 105.432)" class="st2" cx="126.6" cy="97.1" rx="2" ry="4.8"/>
		
			<ellipse transform="matrix(0.6174 -0.7866 0.7866 0.6174 -34.2033 135.1707)" class="st2" cx="121.9" cy="102.8" rx="7.3" ry="6.2"/>
		<g>
			<ellipse class="st2" cx="57.2" cy="56" rx="2.2" ry="2.5"/>
			<ellipse class="st2" cx="70.1" cy="56" rx="2.2" ry="2.5"/>
			<path class="st1" d="M75,49.1c-3.2-1.7-5.2-0.7-7.7,2"/>
		</g>
		<ellipse transform="matrix(0.9116 -0.411 0.411 0.9116 -29.5513 57.7621)" class="st2" cx="119.5" cy="97.6" rx="4.9" ry="2.4"/>
		<path class="st2" d="M57,65.7c-0.2-0.7,0.2-1.5,0.9-1.4c3.4,0.3,11.1,0.7,11.7,0.9c0.7,0.2,1,10.2-4.1,11.3
			C61.4,77.3,58.1,69.1,57,65.7L57,65.7z"/>
	</g>
</g>
<path class="st1" d="M60.7,51.7c-2.5-2.7-4.4-3.7-7.7-2"/>
</svg>
